<svg width="39" height="39" viewBox="0 0 39 39" fill="none" xmlns="http://www.w3.org/2000/svg">
<path d="M16.2452 12.4529C16.2452 13.4212 16.2452 14.3598 16.5506 15.2387C13.3403 19.0077 4.07422 29.7262 4.07422 29.7262L4.29023 32.43C4.29023 32.43 6.88233 34.888 7.26966 34.5156C8.41674 33.3983 9.11691 32.6386 9.11691 32.6386L9.65618 29.4096L13.1652 29.1512L13.4468 25.6652L17.1435 25.5945L17.18 21.8635L21.1047 22.0199L21.775 20.6166C22.9296 21.1156 23.9798 21.3167 25.328 21.3167C30.4303 21.3167 34.5642 17.3392 34.5642 12.438C34.5642 7.53686 30.4273 3.57422 25.325 3.57422C20.2227 3.57422 16.2452 7.55176 16.2452 12.4529ZM30.3044 10.7249C30.3044 11.2972 30.1347 11.8567 29.8167 12.3326C29.4987 12.8084 29.0468 13.1793 28.518 13.3984C27.9892 13.6174 27.4074 13.6747 26.8461 13.563C26.2847 13.4514 25.7691 13.1758 25.3644 12.7711C24.9597 12.3664 24.6841 11.8507 24.5724 11.2894C24.4608 10.7281 24.5181 10.1462 24.7371 9.61746C24.9561 9.08869 25.327 8.63674 25.8029 8.31877C26.2788 8.0008 26.8383 7.83108 27.4106 7.83108C27.7907 7.83069 28.1672 7.90527 28.5185 8.05056C28.8697 8.19585 29.1889 8.40899 29.4577 8.67777C29.7265 8.94656 29.9396 9.26573 30.0849 9.61699C30.2302 9.96826 30.3048 10.3447 30.3044 10.7249Z" fill="#1ED224"/>
</svg>
