<svg width="39" height="39" viewBox="0 0 39 39" fill="none" xmlns="http://www.w3.org/2000/svg">
<path d="M9.53467 34.9583V20.4187C8.10454 20.0479 6.95249 19.2931 6.07853 18.1543C5.20456 17.0155 4.76758 15.7311 4.76758 14.3009V3.17773H7.94564V12.7119H9.53467V3.17773H12.7127V12.7119H14.3018V3.17773H17.4798V14.3009C17.4798 15.7311 17.0428 17.0155 16.1689 18.1543C15.2949 19.2931 14.1429 20.0479 12.7127 20.4187V34.9583H9.53467ZM25.425 34.9583V19.8228C23.9948 19.3461 22.8428 18.3466 21.9688 16.8243C21.0949 15.302 20.6579 13.5737 20.6579 11.6393C20.6579 9.28226 21.2803 7.28273 22.525 5.64073C23.7697 3.99873 25.2661 3.17773 27.014 3.17773C28.7619 3.17773 30.2583 4.00509 31.503 5.6598C32.7478 7.31451 33.3701 9.32093 33.3701 11.679C33.3701 13.6124 32.9331 15.3338 32.0592 16.8434C31.1852 18.353 30.0332 19.3461 28.603 19.8228V34.9583H25.425Z" fill="#FF4040"/>
</svg>
