<svg width="39" height="39" viewBox="0 0 39 39" fill="none" xmlns="http://www.w3.org/2000/svg">
<g clip-path="url(#clip0_2289_3902)">
<path d="M2.38355 -0.000801461L0 2.38274L5.2438 9.72645C5.46456 10.0357 5.75604 10.2877 6.09396 10.4614C6.43188 10.6351 6.80643 10.7256 7.18639 10.7252H7.35324C7.66663 10.7249 7.97699 10.7865 8.26656 10.9063C8.55613 11.0261 8.81922 11.2019 9.04079 11.4235L15.4168 17.7995L9.17903 24.1254C8.11214 23.8114 6.98675 23.7503 5.89212 23.9469C4.79749 24.1436 3.76374 24.5926 2.87288 25.2584C1.98202 25.9241 1.25856 26.7883 0.759883 27.7824C0.261204 28.7765 0.00103017 29.8731 0 30.9853C0.00142885 32.0101 0.223109 33.0226 0.65002 33.9542C1.07693 34.8858 1.6991 35.7148 2.47437 36.385C3.24965 37.0551 4.15991 37.5508 5.14349 37.8385C6.12707 38.1261 7.16099 38.199 8.1752 38.0522C9.1894 37.9053 10.1602 37.5422 11.0218 36.9874C11.8834 36.4326 12.6157 35.6991 13.1691 34.8366C13.7225 33.9741 14.084 33.0027 14.2292 31.9882C14.3743 30.9738 14.2997 29.94 14.0105 28.9569L20.3364 22.7191L22.6437 25.0264L21.9167 27.205C21.777 27.6249 21.757 28.0754 21.8589 28.5061C21.9607 28.9367 22.1805 29.3305 22.4935 29.6434L30.2877 37.4375C30.5086 37.6597 30.7711 37.8359 31.0603 37.9562C31.3495 38.0765 31.6597 38.1384 31.9729 38.1384C32.2861 38.1384 32.5962 38.0765 32.8854 37.9562C33.1746 37.8359 33.4372 37.6597 33.658 37.4375L37.4383 33.6572C37.6605 33.4364 37.8367 33.1738 37.957 32.8846C38.0773 32.5954 38.1392 32.2853 38.1392 31.9721C38.1392 31.6589 38.0773 31.3487 37.957 31.0595C37.8367 30.7703 37.6605 30.5077 37.4383 30.2869L29.6442 22.4927C29.3313 22.1797 28.9375 21.9599 28.5069 21.858C28.0762 21.7562 27.6257 21.7762 27.2058 21.9159L25.0272 22.6429L22.739 20.3547L29.1269 14.055C30.1866 14.3378 31.2971 14.3736 32.3728 14.1594C33.4485 13.9452 34.4606 13.4869 35.3312 12.8197C36.2017 12.1525 36.9074 11.2943 37.3938 10.3113C37.8802 9.32825 38.1344 8.24663 38.1367 7.14983C38.1367 6.50628 38.0557 5.88894 37.8936 5.29782L32.7928 10.401L28.6025 9.53338L27.7349 5.34549L32.8381 0.24232C31.6242 -0.0840795 30.3456 -0.0846888 29.1313 0.240554C27.9171 0.565796 26.81 1.2054 25.9217 2.09488C25.0335 2.98437 24.3954 4.0923 24.0718 5.30701C23.7482 6.52171 23.7505 7.80026 24.0786 9.01377L17.786 15.3969L11.4243 9.03999C10.9773 8.59309 10.7261 7.98692 10.726 7.35482V7.18559C10.726 6.80603 10.6354 6.43195 10.4617 6.09448C10.288 5.75701 10.0362 5.4659 9.72725 5.24538L2.38355 -0.000801461ZM25.3752 25.3744C25.4859 25.2634 25.6174 25.1754 25.7622 25.1153C25.907 25.0552 26.0622 25.0243 26.219 25.0243C26.3758 25.0243 26.531 25.0552 26.6758 25.1153C26.8206 25.1754 26.9521 25.2634 27.0628 25.3744L34.0084 32.3225C34.2255 32.5472 34.3456 32.8483 34.3429 33.1607C34.3402 33.4732 34.2149 33.7721 33.9939 33.9931C33.7729 34.2141 33.474 34.3394 33.1616 34.3421C32.8491 34.3448 32.548 34.2247 32.3233 34.0076L25.3752 27.062C25.2642 26.9513 25.1762 26.8197 25.1161 26.675C25.056 26.5302 25.0251 26.375 25.0251 26.2182C25.0251 26.0614 25.056 25.9062 25.1161 25.7614C25.1762 25.6166 25.2642 25.4851 25.3752 25.3744ZM7.15064 26.2182L8.27329 26.795L9.53418 26.857L10.2183 27.9177L11.2789 28.6017L11.3409 29.8626L11.9177 30.9853L11.3409 32.1079L11.2789 33.3688L10.2183 34.0529L9.53418 35.1136L8.27329 35.1756L7.15064 35.7524L6.02799 35.1756L4.76709 35.1136L4.08301 34.0529L3.02234 33.3688L2.96036 32.1079L2.38355 30.9853L2.96036 29.8626L3.02234 28.6017L4.08301 27.9177L4.76709 26.857L6.02799 26.795L7.15064 26.2182Z" fill="#FBAD1B"/>
</g>
<defs>
<clipPath id="clip0_2289_3902">
<rect width="38.1367" height="38.1367" fill="white"/>
</clipPath>
</defs>
</svg>
