<svg width="39" height="39" viewBox="0 0 39 39" fill="none" xmlns="http://www.w3.org/2000/svg">
<g clip-path="url(#clip0_2289_3926)">
<path d="M35.7484 0H2.38322C1.75115 0 1.14497 0.251089 0.69803 0.69803C0.251089 1.14497 0 1.75115 0 2.38322L0 27.8043C0 28.4363 0.251089 29.0425 0.69803 29.4895C1.14497 29.9364 1.75115 30.1875 2.38322 30.1875H35.7484C36.3804 30.1875 36.9866 29.9364 37.4335 29.4895C37.8805 29.0425 38.1316 28.4363 38.1316 27.8043V2.38322C38.1316 1.75115 37.8805 1.14497 37.4335 0.69803C36.9866 0.251089 36.3804 0 35.7484 0ZM34.9539 23.0378C34.9539 23.2485 34.8703 23.4506 34.7213 23.5996C34.5723 23.7485 34.3702 23.8322 34.1595 23.8322H3.97204C3.76135 23.8322 3.55929 23.7485 3.41031 23.5996C3.26133 23.4506 3.17763 23.2485 3.17763 23.0378V3.97204C3.17763 3.76135 3.26133 3.55929 3.41031 3.41031C3.55929 3.26133 3.76135 3.17763 3.97204 3.17763H34.1595C34.3702 3.17763 34.5723 3.26133 34.7213 3.41031C34.8703 3.55929 34.9539 3.76135 34.9539 3.97204V23.0378ZM22.7995 32.8567C22.731 32.7739 22.6464 32.7059 22.5508 32.6567C22.4552 32.6075 22.3506 32.5783 22.2434 32.5707H15.8882C15.7733 32.5747 15.6605 32.6021 15.5567 32.6513C15.4529 32.7005 15.3602 32.7704 15.2844 32.8567L11.9479 36.8764C11.8704 37.0002 11.8293 37.1434 11.8293 37.2895C11.8293 37.4356 11.8704 37.5788 11.9479 37.7026C12.0156 37.8437 12.1251 37.9606 12.2616 38.0373C12.398 38.1141 12.5547 38.147 12.7105 38.1316H25.4211C25.565 38.127 25.7052 38.0842 25.8271 38.0074C25.9491 37.9307 26.0483 37.8228 26.1147 37.6949C26.181 37.5671 26.2121 37.4238 26.2047 37.2799C26.1973 37.1361 26.1516 36.9968 26.0725 36.8764L22.7995 32.8567Z" fill="#00C0E8"/>
<path d="M27.2801 8.16574C27.1552 7.64902 26.8601 7.18936 26.4422 6.86079C26.0243 6.53223 25.5079 6.35389 24.9763 6.35449H21.4492C21.2385 6.35449 21.0364 6.43819 20.8874 6.58717C20.7385 6.73615 20.6548 6.93821 20.6548 7.1489C20.6548 7.57028 20.4874 7.9744 20.1894 8.27236C19.8914 8.57032 19.4873 8.73772 19.0659 8.73772C18.6446 8.73772 18.2404 8.57032 17.9425 8.27236C17.6445 7.9744 17.4771 7.57028 17.4771 7.1489C17.4771 6.93821 17.3934 6.73615 17.2444 6.58717C17.0955 6.43819 16.8934 6.35449 16.6827 6.35449H13.1555C12.6239 6.35389 12.1076 6.53223 11.6897 6.86079C11.2718 7.18936 10.9766 7.64902 10.8518 8.16574L9.53305 13.3135C9.50666 13.432 9.50723 13.5549 9.53473 13.6732C9.56223 13.7914 9.61596 13.902 9.69193 13.9967C9.76672 14.0934 9.86323 14.1711 9.97364 14.2235C10.0841 14.276 10.2053 14.3017 10.3275 14.2986H12.3135C12.4188 14.2986 12.5198 14.3404 12.5943 14.4149C12.6688 14.4894 12.7107 14.5904 12.7107 14.6958V19.8594C12.7107 20.0701 12.7944 20.2722 12.9434 20.4212C13.0923 20.5701 13.2944 20.6538 13.5051 20.6538H24.6268C24.8375 20.6538 25.0395 20.5701 25.1885 20.4212C25.3375 20.2722 25.4212 20.0701 25.4212 19.8594V14.6958C25.4212 14.5904 25.4631 14.4894 25.5375 14.4149C25.612 14.3404 25.7131 14.2986 25.8184 14.2986H27.8044C27.924 14.2992 28.042 14.2723 28.1495 14.2199C28.2569 14.1676 28.3509 14.0912 28.4241 13.9967C28.5 13.902 28.5538 13.7914 28.5813 13.6732C28.6088 13.5549 28.6093 13.432 28.5829 13.3135L27.2801 8.16574Z" fill="#00C0E8"/>
</g>
<defs>
<clipPath id="clip0_2289_3926">
<rect width="38.1316" height="38.1316" fill="white"/>
</clipPath>
</defs>
</svg>
