<svg width="39" height="39" viewBox="0 0 39 39" fill="none" xmlns="http://www.w3.org/2000/svg">
<path d="M27.0133 28.6032C25.2495 28.6032 23.8353 30.0174 23.8353 31.7813C23.8353 32.6241 24.1701 33.4325 24.7661 34.0285C25.3621 34.6245 26.1705 34.9593 27.0133 34.9593C27.8562 34.9593 28.6646 34.6245 29.2606 34.0285C29.8566 33.4325 30.1914 32.6241 30.1914 31.7813C30.1914 30.9384 29.8566 30.13 29.2606 29.534C28.6646 28.938 27.8562 28.6032 27.0133 28.6032ZM1.58887 3.17871V6.35677H4.76693L10.4874 18.4175L8.32635 22.3106C8.088 22.7556 7.94499 23.2799 7.94499 23.8361C7.94499 24.679 8.27982 25.4873 8.87582 26.0833C9.47182 26.6793 10.2802 27.0142 11.123 27.0142H30.1914V23.8361H11.7904C11.6851 23.8361 11.584 23.7942 11.5095 23.7197C11.435 23.6452 11.3932 23.5442 11.3932 23.4388C11.3932 23.3594 11.4091 23.2958 11.4409 23.2482L12.871 20.658H24.7093C25.901 20.658 26.9498 19.9906 27.4901 19.0213L33.1788 8.74032C33.29 8.48607 33.3695 8.21594 33.3695 7.9458C33.3695 7.52436 33.2021 7.12019 32.9041 6.82219C32.6061 6.52419 32.2019 6.35677 31.7804 6.35677H8.27868L6.785 3.17871M11.123 28.6032C9.35922 28.6032 7.94499 30.0174 7.94499 31.7813C7.94499 32.6241 8.27982 33.4325 8.87582 34.0285C9.47182 34.6245 10.2802 34.9593 11.123 34.9593C11.9659 34.9593 12.7743 34.6245 13.3703 34.0285C13.9663 33.4325 14.3011 32.6241 14.3011 31.7813C14.3011 30.9384 13.9663 30.13 13.3703 29.534C12.7743 28.938 11.9659 28.6032 11.123 28.6032Z" fill="#9A16FF"/>
</svg>
